<?xml version="1.0" encoding="utf-8"?><!-- Uploaded to: SVG Repo, www.svgrepo.com, Generator: SVG Repo Mixer Tools -->
<svg fill="#000000" width="800px" height="800px" viewBox="0 0 24 24" id="curve-arrow-down-5" data-name="Flat Line" xmlns="http://www.w3.org/2000/svg" class="icon flat-line"><path id="secondary" d="M15.53,20.57,20,14H17c-.19-5.35-4.58-7.06-9-7.06,0,0,4.27,2.45,4.48,7.06h-3L14,20.57A1,1,0,0,0,15.53,20.57Z" style="fill: rgb(44, 169, 188); stroke-width: 2;"></path><path id="primary" d="M9,21H5a1,1,0,0,1-1-1V4A1,1,0,0,1,5,3H19a1,1,0,0,1,1,1V9" style="fill: none; stroke: rgb(0, 0, 0); stroke-linecap: round; stroke-linejoin: round; stroke-width: 2;"></path><path id="primary-2" data-name="primary" d="M15.53,20.57,20,14H17c-.19-5.35-4.58-7.06-9-7.06,0,0,4.27,2.45,4.48,7.06h-3L14,20.57A1,1,0,0,0,15.53,20.57Z" style="fill: none; stroke: rgb(0, 0, 0); stroke-linecap: round; stroke-linejoin: round; stroke-width: 2;"></path></svg>